# xmcd CD database file
#
# Track frame offsets:
#	150
#	20417
#	40422
#	69096
#	85570
#	100387
#	129872
#	160950
#	194252
#	224780
#	252473
#
# Disc length: 3761 seconds
#
# Revision: 0
# Processed by: cddbd v1.5.1PL2 Copyright (c) Steve Scherf et al.
# Submitted via: CDex 1.51
#
DISCID=940eaf0b
DTITLE=Rebekka Bakken - 2005 Leverkusener Jazztage
DYEAR=2005
DGENRE=Jazz
TTITLE0=Rebekka Bakken - As Tears Clear My Eyes
TTITLE1=Rebekka Bakken - Going Home
TTITLE2=Rebekka Bakken - Worriless
TTITLE3=Rebekka Bakken - Any Pretty Girl
TTITLE4=Rebekka Bakken - Is That You?
TTITLE5=Rebekka Bakken - Didn't I
TTITLE6=Rebekka Bakken - Say Goodbye To What Is Gone
TTITLE7=Rebekka Bakken - Jeg Radle Vli Alle
TTITLE8=Rebekka Bakken - Ghost In This Town
TTITLE9=Rebekka Bakken - Time After Time
TTITLE10=Rebekka Bakken - As Long As There Is A Voyage Away
EXTD=YEAR: 2005
EXTT0=
EXTT1=
EXTT2=
EXTT3=
EXTT4=
EXTT5=
EXTT6=
EXTT7=
EXTT8=
EXTT9=
EXTT10=
PLAYORDER=
